<?xml version="1.0" encoding="UTF-8" standalone="no"?><!DOCTYPE svg PUBLIC "-//W3C//DTD SVG 1.1//EN" "http://www.w3.org/Graphics/SVG/1.1/DTD/svg11.dtd"><svg width="100%" height="100%" viewBox="0 0 3709 3041" version="1.1" xmlns="http://www.w3.org/2000/svg" xmlns:xlink="http://www.w3.org/1999/xlink" xml:space="preserve" xmlns:serif="http://www.serif.com/" style="fill-rule:evenodd;clip-rule:evenodd;stroke-linejoin:round;stroke-miterlimit:2;"><path d="M915.323,2774.62l7.542,158.987l0.001,0.007c2.631,55.58 -40.935,103.483 -96.515,106.121l-3.293,0.156l-12.348,-260.307l104.613,-4.964Z" style="fill:#2f2e41;fill-rule:nonzero;"/><path d="M3175.71,2505.95c-75.721,147.771 -171.766,290.683 -293.288,420.031c-2.699,2.921 -5.425,5.767 -8.175,8.664l-287.92,-136.304c1.762,-2.926 3.693,-6.211 5.769,-9.803c123.68,-211.612 870.271,-1502.46 846.679,-1794.83c2.748,24.113 91.242,821.537 -263.065,1512.24Z" style="fill:#e6e6e6;fill-rule:nonzero;"/><path d="M2937.97,2952.28c-4.031,2.291 -8.163,4.533 -12.322,6.7l-215.991,-102.252c3.019,-2.142 6.537,-4.676 10.581,-7.524c66.172,-47.511 262.938,-190.056 455.473,-343.252c206.909,-164.629 408.967,-341.517 438.975,-425.952c-6.095,19.362 -195.477,607.905 -676.716,872.28Z" style="fill:#e6e6e6;fill-rule:nonzero;"/><circle cx="359.291" cy="2700.21" r="333.333" style="fill:#397ef6;"/><path d="M492.813,2560.33l-267.045,-0c-24.405,0.027 -44.48,20.102 -44.507,44.507l-0,190.746c0.027,24.406 20.102,44.48 44.507,44.508l267.045,-0c24.406,-0.028 44.48,-20.102 44.508,-44.508l-0,-190.746c-0.028,-24.406 -20.102,-44.48 -44.508,-44.507Zm-0,25.433c1.594,0.006 3.181,0.213 4.724,0.616l-138.216,110.255l-137.407,-110.479c1.268,-0.261 2.559,-0.393 3.854,-0.392l267.045,-0Zm-0,228.895l-267.045,-0c-10.459,-0.012 -19.062,-8.616 -19.074,-19.075l-0,-189.033l144.629,116.287c4.622,3.716 11.261,3.729 15.898,0.03l144.667,-115.403l-0,188.119c-0.012,10.459 -8.615,19.063 -19.075,19.075Z" style="fill:#fff;fill-rule:nonzero;"/><path d="M1645.7,2218.96l74.583,0.614c0.143,0.001 0.285,0.002 0.428,0.002c28.466,-0 51.89,-23.424 51.89,-51.89c0,-2.759 -0.22,-5.513 -0.658,-8.237c-4.026,-25.049 -25.862,-43.655 -51.233,-43.655c-7.963,-0 -15.821,1.833 -22.962,5.357l-70.336,34.707l-240.569,53.648l-103.063,-105.371l-59.201,97.504l139.075,107.449l282.046,-90.128Z" style="fill:#ffb8b8;fill-rule:nonzero;"/><path d="M1631.72,2989.54l-87.873,16.899c-60.022,-189.202 -125.054,-368.379 -125.05,-506.959c-84.942,94.537 -190.277,148.622 -314.315,165.606l13.519,-209.543l101.392,-54.075l155.179,-71.621c13.586,-6.271 28.244,-9.897 43.187,-10.683c59.866,-3.151 113.078,39.86 122.549,99.056l91.412,571.32Z" style="fill:#2f2e41;fill-rule:nonzero;"/><path d="M1210.95,2639.74l-35.023,26.617c-30.607,23.261 -71.378,28.576 -106.925,13.939c-100.314,-75.192 -171.581,-53.009 -236.173,60.484c-77.475,-87.438 -96.59,-213.727 -27.446,-344.381l383.599,8.45l77.734,-23.658l-55.766,258.549Z" style="fill:#2f2e41;fill-rule:nonzero;"/><path d="M1083.19,3031.32c-45.183,13.903 -94.304,-6.792 -115.915,-48.837c-34.474,-30.364 -63.561,-73.837 -88.789,-126.703c-18.101,-38.78 -33.645,-78.703 -46.53,-119.513c-17.457,-53.917 11.733,-112.82 66.061,-128.951c1.616,-0.479 3.251,-0.931 4.906,-1.356c72.526,-18.62 147.005,23.211 171.796,93.866l72.089,205.451c3.656,10.421 5.524,21.385 5.524,32.429c-0,41.492 -26.366,78.684 -65.518,92.421c-1.2,0.421 -2.408,0.819 -3.624,1.193Z" style="fill:#2f2e41;fill-rule:nonzero;"/><path d="M866.214,2832.38c0,-0 84.493,94.632 101.392,148.708" style="fill-opacity:0.2;fill-rule:nonzero;"/><path d="M538.517,2385.78l-28.279,69.018c-2.558,6.243 -3.874,12.926 -3.874,19.673c0,24.185 16.908,45.319 40.504,50.627c3.737,0.84 7.556,1.264 11.387,1.264c28.466,0 51.891,-23.424 51.891,-51.891c-0,-1.345 -0.052,-2.69 -0.157,-4.031l-6.093,-78.196l39.566,-243.281l136.119,-56.54l-68.532,-91.188l-151.427,89.203l-21.105,295.342Z" style="fill:#ffb8b8;fill-rule:nonzero;"/><path d="M1214.33,2396.4c-97.108,163.114 -290.695,226.275 -456.501,98.548c29.166,-95.833 123.335,-360.694 62.5,-370.833c-129.167,54.167 -129.354,-73.012 -153.515,-136.662l294.036,-108.151l158.848,43.936l32.561,11.554c43.301,15.365 72.63,56.295 73.26,102.237c-66.726,96.398 -116.122,199.232 -11.189,359.371Z" style="fill:#397ef6;fill-rule:nonzero;"/><path d="M1251.5,2264.59l-116.6,-96.322l38.866,-224.752l158.848,168.986l-81.114,152.088Z" style="fill:#397ef6;fill-rule:nonzero;"/><path id="bc7f4772-a479-43ba-84b6-0038831d0625" d="M3186.27,720.604l-16.667,0l0,-456.437c0,-144.918 -119.249,-264.167 -264.166,-264.167l-967.03,-0c-144.917,-0 -264.166,119.249 -264.166,264.167l-0,2504.06c-0,144.918 119.249,264.167 264.166,264.167l967.025,-0c144.918,-0 264.167,-119.249 264.167,-264.167l-0,-1722.72l16.667,0l0.004,-324.9Z" style="fill:#3f3d56;fill-rule:nonzero;"/><path id="e7549b14-e146-4c1f-8b4f-7638ef62aaf0" d="M2916.09,68.721l-126.229,-0c4.587,11.242 6.947,23.27 6.947,35.412c-0,51.419 -42.311,93.729 -93.729,93.729l-553.998,0c-51.415,-0.004 -93.721,-42.313 -93.721,-93.729c0,-12.138 2.358,-24.161 6.942,-35.4l-117.916,0c-108.227,0 -197.284,89.057 -197.284,197.284l0,2500.37c0,108.227 89.057,197.284 197.284,197.284l971.666,-0c108.227,-0 197.284,-89.057 197.284,-197.284l-0,-2500.38c-0,-108.226 -89.057,-197.283 -197.284,-197.283l0.038,-0l-0,-0Z" style="fill:#fff;fill-rule:nonzero;"/><circle id="f4a12a6a-3235-4aa9-87a4-fdfa38e5097e" cx="2431.91" cy="2715.61" r="108.333" style="fill:#e6e6e6;"/><path d="M1992.43,1713.74c-10.24,-0 -18.573,9.511 -18.573,21.199c-0,11.688 8.333,21.2 18.573,21.2l875.594,-0c10.24,-0 18.573,-9.512 18.573,-21.2c0,-11.688 -8.333,-21.199 -18.573,-21.199l-875.594,-0Z" style="fill:#e6e6e6;fill-rule:nonzero;"/><path d="M1992.43,2213.74c-10.24,-0 -18.573,9.511 -18.573,21.199c-0,11.688 8.333,21.2 18.573,21.2l875.594,-0c10.24,-0 18.573,-9.512 18.573,-21.2c0,-11.688 -8.333,-21.199 -18.573,-21.199l-875.594,-0Z" style="fill:#e6e6e6;fill-rule:nonzero;"/><path d="M1992.43,1840.94c-10.24,-0 -18.573,9.511 -18.573,21.199c-0,11.689 8.333,21.2 18.573,21.2l376.771,0c10.24,0 18.573,-9.511 18.573,-21.2c-0,-11.688 -8.333,-21.199 -18.573,-21.199l-376.771,-0Z" style="fill:#e6e6e6;fill-rule:nonzero;"/><path d="M1992.43,1962.18c-10.24,0 -18.573,9.512 -18.573,21.2c-0,11.688 8.333,21.199 18.573,21.199l875.594,0c10.24,0 18.573,-9.511 18.573,-21.199c0,-11.689 -8.333,-21.2 -18.573,-21.2l-875.594,0Z" style="fill:#e6e6e6;fill-rule:nonzero;"/><path d="M1992.43,2089.38c-10.24,-0 -18.573,9.511 -18.573,21.199c-0,11.689 8.333,21.2 18.573,21.2l376.771,-0c10.24,-0 18.573,-9.511 18.573,-21.2c-0,-11.688 -8.333,-21.199 -18.573,-21.199l-376.771,-0Z" style="fill:#e6e6e6;fill-rule:nonzero;"/><path d="M2157.72,748.447l545.056,-0c12.453,0.014 22.696,10.257 22.711,22.71l-0,567.654c-0.015,12.453 -10.258,22.696 -22.711,22.71l-545.056,0c-12.453,-0.014 -22.696,-10.257 -22.711,-22.71l0,-567.654c0.015,-12.453 10.258,-22.696 22.711,-22.711Z" style="fill:#397ef6;fill-rule:nonzero;"/><path d="M2586.64,1244.46c0.01,0 0.021,0 0.031,0c8.459,0 15.419,-6.96 15.419,-15.418c-0,-8.459 -6.96,-15.419 -15.419,-15.419c-0.005,0 -0.011,0 -0.016,0l-312.791,0c-0.01,0 -0.021,0 -0.031,0c-8.459,0 -15.419,6.96 -15.419,15.419c0,8.458 6.96,15.418 15.419,15.418c0.005,0 0.011,0 0.017,0l312.79,0Z" style="fill:#fff;fill-rule:nonzero;"/><path d="M2586.64,1153.62c8.458,-0 15.418,-6.961 15.418,-15.419c-0,-8.458 -6.96,-15.418 -15.418,-15.418l-312.776,-0c-0.002,-0 -0.005,-0 -0.007,-0c-8.458,-0 -15.419,6.96 -15.419,15.418c0,8.456 6.956,15.414 15.411,15.419l312.791,-0Z" style="fill:#fff;fill-rule:nonzero;"/><path d="M2430.25,865.507c-0,-0 -0,-0 -0,-0c53.241,-0 97.052,43.811 97.052,97.052c0,53.242 -43.811,97.053 -97.052,97.053c-53.241,-0 -97.052,-43.811 -97.052,-97.053c0.06,-53.218 43.833,-96.992 97.052,-97.052Z" style="fill:#fff;fill-rule:nonzero;"/><path d="M1191.93,1849.88l-288.125,-0c-12.258,-0.014 -22.34,-10.097 -22.354,-22.355l-0,-124.191c-0,-91.294 75.123,-166.417 166.417,-166.417c91.293,0 166.416,75.123 166.416,166.417l0,124.191c-0.014,12.259 -10.096,22.341 -22.354,22.355Z" style="fill:#2f2e41;fill-rule:nonzero;"/><path d="M972.623,1661.86c32.3,-59.088 106.495,-80.836 165.583,-48.536c59.087,32.3 80.835,106.495 48.535,165.583c-32.3,59.087 -106.495,80.835 -165.582,48.535c-59.088,-32.3 -80.836,-106.495 -48.536,-165.582Z" style="fill:#ffb6b6;"/><path d="M1253.66,1715.75l-176.181,0l-1.807,-25.294l-9.033,25.294l-27.128,0l-3.58,-50.133l-17.904,50.133l-52.491,0l-0,-2.484c0.081,-72.186 59.455,-131.561 131.641,-131.643l24.84,0c72.187,0.081 131.562,59.457 131.643,131.643l0,2.484Z" style="fill:#2f2e41;fill-rule:nonzero;"/><path d="M1076.04,1873.06c-1.326,-0.002 -2.65,-0.119 -3.956,-0.35l-129.007,-22.762l-0,-213.211l142.012,0l-3.516,4.099c-48.917,57.051 -12.064,149.559 14.258,199.624c3.953,7.47 3.271,16.584 -1.75,23.383c-4.183,5.784 -10.902,9.217 -18.041,9.217Z" style="fill:#2f2e41;fill-rule:nonzero;"/><path d="M1505.55,2925.73l159.166,-0.006l0.006,-0c55.643,0.002 101.429,45.788 101.433,101.431l0,3.296l-260.6,0.01l-0.005,-104.731Z" style="fill:#2f2e41;fill-rule:nonzero;"/><path d="M3704.17,3040.78l-3700,-0.001c-2.286,0.001 -4.167,-1.88 -4.167,-4.166c0,-2.286 1.881,-4.167 4.167,-4.167l3700,0c2.285,0 4.166,1.881 4.166,4.167c0,2.286 -1.881,4.167 -4.166,4.167Z" style="fill:#cacaca;fill-rule:nonzero;"/></svg>